<?xml version="1.0" encoding="utf-8" ?>
<svg xmlns="http://www.w3.org/2000/svg" xmlns:xlink="http://www.w3.org/1999/xlink" width="512" height="512">
	<path fill="white" fill-opacity="0.90196079" d="M333.71 195.432L334.179 195.583C339.056 196.004 344.097 195.759 348.992 195.762L457.165 195.773C460.18 195.775 473.228 194.815 474.86 196.292L474.902 304.901C474.841 315.57 476.711 329.033 465.524 335.153C467.229 330.794 471.194 331.926 472.936 322.518C473.635 318.74 473.3 314.399 473.315 310.536L473.4 210.436C473.403 206.086 473.296 201.717 473.627 197.378L473.659 196.986C471.597 196.046 467.435 196.518 465.108 196.52L366.36 196.512C361.249 196.506 336.906 197.53 333.71 195.432Z"/>
	<path fill="white" d="M279.455 474.831C278.252 475.922 276.783 476.828 275.517 477.867C255.907 493.957 246.682 486.197 228.127 472.281L149.139 410.944C142.619 405.783 135.264 403.122 138.203 392.225L138.307 391.875C140.427 384.499 146.17 385.738 152.208 385.727L174.923 385.71C178.73 385.707 183.203 386.13 186.919 385.406C187.623 379.081 187.245 372.394 187.282 366.022L187.325 356.921C187.331 354.769 187.501 352.511 186.898 350.424L186.771 350C183.49 338.144 172.832 338.988 162.679 338.981L57.0207 338.985C44.2857 338.795 36.878 326.887 36.9367 315.041L37.0024 197.252C37.1269 194.554 39.4384 195.694 41.5642 195.725L163.723 195.751C173.966 195.749 185.269 197.44 187.845 183.478C188.151 181.823 187.943 179.785 187.935 178.081L187.953 126.799C184.316 126.13 180.067 126.498 176.36 126.495L154.138 126.475C148.784 126.457 140.534 127.769 138.68 120.915L138.614 120.652C135.605 109.289 141.907 107.31 149.035 102.062L246.804 26.6727C248.482 25.3897 250.494 23.596 252.512 22.9185L253.036 22.7305C260.409 19.9635 270.225 30.21 275.183 34.2012L362.41 101.636C364.933 103.528 367.843 105.051 370.251 107.041C373.494 109.721 375.147 119.01 372.498 122.282L372.3 122.517C369.542 126.062 365.949 126.434 361.763 126.444L336.175 126.481C332.201 126.488 328.213 126.387 324.251 126.748L324.212 127.302C323.873 131.592 324.072 135.987 324.075 140.296L324.087 177.427C324.084 187.527 325.178 190.364 333.71 195.432C336.906 197.53 361.249 196.506 366.36 196.512L465.108 196.52C467.435 196.518 471.597 196.046 473.659 196.986L473.627 197.378C473.296 201.717 473.403 206.086 473.4 210.436L473.315 310.536C473.3 314.399 473.635 318.74 472.936 322.518C471.194 331.926 467.229 330.794 465.524 335.153C463.76 336.608 461.044 337.822 458.807 338.218C453.92 339.443 448.632 338.989 443.622 338.99L344.714 338.991C337.094 338.997 331.246 339.127 326.839 346.566L325.816 348.59C323.671 352.953 324.954 360.632 324.952 365.44C324.95 371.689 324.494 378.331 325.123 384.534C329.52 386.51 334.129 385.734 338.839 385.736L360.94 385.743C365.32 385.747 371.07 384.54 373.079 389.685L373.603 391.217C374.456 393.43 374.153 396.521 374.013 398.876C373.66 404.842 353.851 417.634 349.245 421.219L287.173 469.401C284.843 471.125 282.049 473.57 279.455 474.831ZM92.3247 281.717L180.656 281.736C188.203 281.739 195.702 281.443 203.089 283.3C227.097 289.333 241.989 311.095 242 335.167L241.991 394.576C241.994 397.089 241.785 399.498 242.744 401.875L242.905 402.293C244.316 405.888 247.305 408.889 250.862 410.396L253.944 411.324C255.303 411.679 257.34 411.588 258.724 411.345L259.875 410.974C268.286 408.305 269.982 401.672 269.988 394.125L270.009 338.281C270.057 313.058 281.168 291.252 306.898 283.536C312.618 281.821 318.139 281.735 324.056 281.733L417.125 281.77C418.353 281.785 419.982 282.142 421.132 281.839L421.313 254.947C421.316 254.023 421.439 252.972 421.139 252.095L418.915 252.009L319.522 251.999C318.649 251.968 317.608 252.023 316.828 251.566L316.515 251.546C295.903 250.071 276.836 230.481 271.748 211.125C269.014 200.728 269.986 189.122 269.983 178.469L269.898 133.069C269.878 132.221 270.026 130.538 269.691 129.799C269.404 129.165 258.021 123.432 256.544 122.73L242.131 128.693C241.721 130.236 241.994 132.466 241.994 134.079L241.99 193.583C241.958 221.716 227.338 244.986 198.198 251.109C193.62 252.071 189.452 252.001 184.758 252.004L90.4798 252.128C90.4413 255.638 90.0247 280.425 90.6676 281.498L92.3247 281.717ZM279.455 474.831C282.049 473.57 284.843 471.125 287.173 469.401L349.245 421.219C353.851 417.634 373.66 404.842 374.013 398.876C374.153 396.521 374.456 393.43 373.603 391.217L373.079 389.685C371.07 384.54 365.32 385.747 360.94 385.743L338.839 385.736C334.129 385.734 329.52 386.51 325.123 384.534C324.494 378.331 324.95 371.689 324.952 365.44C324.954 360.632 323.671 352.953 325.816 348.59L326.839 346.566C331.246 339.127 337.094 338.997 344.714 338.991L443.622 338.99C448.632 338.989 453.92 339.443 458.807 338.218C457.954 337.861 457.158 337.76 456.251 338.064L455.312 338.323C454.881 338.431 455.208 338.352 454.625 338.285L454.105 338.33C451.818 338.549 449.297 338.299 446.977 338.294L431.712 338.281C426.674 338.284 421.654 338.308 416.625 338.303L343.707 338.29C340.579 338.298 333.211 338.221 331 340.931L329.221 341.878C328.494 342.349 327.714 343.224 327.25 343.941L327.034 344.205C326.274 345.173 326.093 346.142 325.003 346.875L324.963 347.141C324.853 347.655 324.453 348.201 324.267 348.751L324.127 349.094C323.019 351.895 323.301 355.552 323.318 358.531L323.38 369.083C323.387 374.157 323.033 379.46 323.52 384.499L323.92 384.217C324.066 383.795 324.208 383.446 324.438 383.062C324.539 386.633 325.717 386.019 329.375 386.302C332.066 386.51 334.748 386.506 337.445 386.507L356.817 386.513C360.608 386.516 364.487 386.31 368.25 386.743L368.634 386.78C368.995 386.834 369.094 386.985 369.375 387.181L370.089 387.534C371.328 388.056 371.741 388.6 371.877 389.875L372.127 390.125C372.503 390.752 372.298 391.235 372.877 391.875L372.812 392.688L372.426 392.883C372.632 394.755 372.733 397.527 372.41 399.375L372.627 399.625C372.453 400.144 372.575 399.891 372.25 400.375L372.012 400.473C371.877 400.951 371.668 401.199 371.453 401.625L370.477 403.024C370.177 403.396 370.304 403.248 369.921 403.625L369.633 404.352C369.282 404.541 369.177 404.52 369 404.894L368.473 405.25C368.383 405.585 368.287 405.507 367.961 405.75L367.587 406.06C367.094 406.462 366.646 406.687 366.069 406.938L365.445 407.725C365.137 408.225 364.69 408.498 364.127 408.625L363.502 409.25C363.232 409.559 362.954 409.79 362.625 410.035L361.488 410.85C361.08 411.258 360.677 411.47 360.127 411.625L359.625 412.014C359.247 412.756 356.938 414.428 356.127 414.625L355.112 415.75C354.72 416.201 353.998 416.573 353.5 416.925L351.133 418.75C350.985 418.907 350.755 418.945 350.562 419.001L350.445 419.218C350.224 419.568 349.955 419.738 349.625 419.972L348.477 420.721C348.067 421.246 347.782 421.506 347.127 421.625L346.625 422.421C345.981 422.631 346.201 422.543 345.75 423.021L345 423.52C343.876 424.242 345.133 423.396 344.5 423.925L344.126 424.188C343.546 424.633 343.411 424.94 342.627 425.125L341.375 426.287C341.029 426.725 340.806 426.95 340.251 427.017L339 428.125C338.903 428.182 338.702 428.44 338.625 428.535L337.112 429.75C336.855 430.046 336.666 430.106 336.356 430.312L335 431.505C334.375 431.964 333.852 432.33 333.127 432.625L332.411 433.25C332.035 433.731 331.705 433.985 331.127 434.125L329.953 435.254C329.634 435.707 329.14 435.959 328.627 436.125L327.399 437.25C327.025 437.769 326.748 438.012 326.127 438.125L326.125 438.505L325.04 439.247C324.555 439.718 324.295 439.963 323.627 440.125L323.5 440.394C323.082 440.921 321.972 441.594 321.375 441.877L321.133 442.25C320.869 442.641 319.572 443.544 319.127 443.625L318.496 444.253C318.306 444.568 317.983 444.908 317.625 445.035L316.5 445.957C315.888 446.163 315.775 446.508 315.127 446.625L314.625 447.41C314.138 447.577 314.075 447.525 313.75 447.957L312.5 448.925C311.717 449.238 311.557 449.956 310.627 450.125L310 450.947C309.44 451.146 308.627 451.834 308.158 452.25L307.494 452.818C307.029 453.25 306.392 453.455 306 453.941L305.375 454.505C304.896 454.866 304.733 455.015 304.127 455.125L303.5 455.933C303.002 456.124 303.063 456.022 302.75 456.53L300.953 457.933C300.489 458.313 299.959 458.574 299.5 458.963L297.799 460.251C297.017 460.714 296.143 461.974 295.251 462.023L294.375 462.944C294.314 463.03 294.033 463.198 293.955 463.25L293.724 463.406C293.434 463.587 293.517 463.531 293.127 463.625L292.112 464.75C291.86 465.04 291.673 465.12 291.356 465.312L290.178 466.214C289.87 466.703 289.172 467.01 288.627 467.125L288.006 467.81C287.552 468.241 287.245 468.481 286.627 468.625L286.38 469.164C285.809 469.365 285.484 469.604 285.125 470.088L283.606 471.082C283.032 471.394 282.282 472.077 281.743 472.5L281.473 472.691C281.251 472.852 279.66 473.872 279.303 474.495L279.455 474.831ZM92.3247 281.665L92.5289 281.732C94.2516 282.165 96.8483 281.832 98.6521 281.817L181.733 282.435C193.897 282.721 201.48 282.128 212.833 287.658C213.914 288.185 214.786 288.845 215.979 289.125L216.169 289.393C216.766 290.1 217.6 290.245 218.319 290.75L219.826 291.967C220.434 292.4 220.994 293.074 221.719 293.25L224.676 295.75C225.893 296.786 224.317 295.499 225.184 296.375L226.158 297.264C226.392 297.482 226.557 297.764 226.783 297.99L227.158 298.264C227.712 298.69 228.452 299.641 228.875 300.192L229.248 300.61C230.515 302.046 231.545 303.804 232.501 305.458L232.68 305.649C233.525 306.584 234.983 309.178 235.127 310.375L235.37 310.605C236.347 311.582 236.971 313.997 237.627 315.375L237.751 315.999C237.835 316.455 237.795 316.542 238.127 316.875L238.751 318.999C238.915 319.545 238.887 320.063 238.877 320.625L239.814 322.551C239.71 322.965 239.791 323.21 239.877 323.625L239.627 324C239.514 324.208 239.438 324.536 239.377 324.75L239.963 325.843C240.23 326.377 240.157 326.924 240.125 327.5L240.151 328.625C240.193 329.775 240.571 330.741 240.467 331.906L241 400.125C241.047 399.515 241.026 399.363 241.377 398.875L241.251 400.822C242.214 402.488 242.78 404.177 243.877 405.875L244.549 406.891C245.518 408.35 247.348 408.997 248.375 410.373L248.746 410.441C249.293 410.569 249.308 410.748 249.75 410.979L250.973 411.316C252.125 411.597 250.634 411.211 251.75 411.594L254.104 412.04C255.577 412.306 256.584 412.19 258 411.85L258.724 411.345C257.34 411.588 255.303 411.679 253.944 411.324L250.862 410.396C247.305 408.889 244.316 405.888 242.905 402.293L242.744 401.875C241.785 399.498 241.994 397.089 241.991 394.576L242 335.167C241.989 311.095 227.097 289.333 203.089 283.3C195.702 281.443 188.203 281.739 180.656 281.736L92.3247 281.665ZM316.828 251.622C317.608 252.023 318.649 251.968 319.522 251.999L418.915 251.967L416.75 251.75C416.406 251.48 415.833 251.241 415.375 251.25L397.716 251.284C397.23 251.351 396.759 251.459 396.25 251.385L395.466 251.284C394.452 251.196 393.301 251.25 392.284 251.315L329.063 251.226C326.047 250.93 322.595 251.139 319.563 251.415L318.375 251.5C317.721 251.46 317.503 251.37 316.828 251.622Z"/>
	<path fill="white" fill-opacity="0.95294118" d="M316.828 251.622C317.503 251.37 317.721 251.46 318.375 251.5L319.563 251.415C322.595 251.139 326.047 250.93 329.063 251.226L392.284 251.315C393.301 251.25 394.452 251.196 395.466 251.284L396.25 251.385C396.759 251.459 397.23 251.351 397.716 251.284L415.375 251.25C415.833 251.241 416.406 251.48 416.75 251.75L418.915 251.967L319.522 251.999C318.649 251.968 317.608 252.023 316.828 251.622Z"/>
	<path fill="white" fill-opacity="0.9254902" d="M92.3247 281.665L180.656 281.736C188.203 281.739 195.702 281.443 203.089 283.3C227.097 289.333 241.989 311.095 242 335.167L241.991 394.576C241.994 397.089 241.785 399.498 242.744 401.875L242.905 402.293C244.316 405.888 247.305 408.889 250.862 410.396L253.944 411.324C255.303 411.679 257.34 411.588 258.724 411.345L258 411.85C256.584 412.19 255.577 412.306 254.104 412.04L251.75 411.594C250.634 411.211 252.125 411.597 250.973 411.316L249.75 410.979C249.308 410.748 249.293 410.569 248.746 410.441L248.375 410.373C247.348 408.997 245.518 408.35 244.549 406.891L243.877 405.875C242.78 404.177 242.214 402.488 241.251 400.822L241.377 398.875C241.026 399.363 241.047 399.515 241 400.125L240.467 331.906C240.571 330.741 240.193 329.775 240.151 328.625L240.125 327.5C240.157 326.924 240.23 326.377 239.963 325.843L239.377 324.75C239.438 324.536 239.514 324.208 239.627 324L239.877 323.625C239.791 323.21 239.71 322.965 239.814 322.551L238.877 320.625C238.887 320.063 238.915 319.545 238.751 318.999L238.127 316.875C237.795 316.542 237.835 316.455 237.751 315.999L237.627 315.375C236.971 313.997 236.347 311.582 235.37 310.605L235.127 310.375C234.983 309.178 233.525 306.584 232.68 305.649L232.501 305.458C231.545 303.804 230.515 302.046 229.248 300.61L228.875 300.192C228.452 299.641 227.712 298.69 227.158 298.264L226.783 297.99C226.557 297.764 226.392 297.482 226.158 297.264L225.184 296.375C224.317 295.499 225.893 296.786 224.676 295.75L221.719 293.25C220.994 293.074 220.434 292.4 219.826 291.967L218.319 290.75C217.6 290.245 216.766 290.1 216.169 289.393L215.979 289.125C214.786 288.845 213.914 288.185 212.833 287.658C201.48 282.128 193.897 282.721 181.733 282.435L98.6521 281.817C96.8483 281.832 94.2516 282.165 92.5289 281.732L92.3247 281.665Z"/>
	<path fill="white" fill-opacity="0.9254902" d="M279.455 474.831L279.303 474.495C279.66 473.872 281.251 472.852 281.473 472.691L281.743 472.5C282.282 472.077 283.032 471.394 283.606 471.082L285.125 470.088C285.484 469.604 285.809 469.365 286.38 469.164L286.627 468.625C287.245 468.481 287.552 468.241 288.006 467.81L288.627 467.125C289.172 467.01 289.87 466.703 290.178 466.214L291.356 465.312C291.673 465.12 291.86 465.04 292.112 464.75L293.127 463.625C293.517 463.531 293.434 463.587 293.724 463.406L293.955 463.25C294.033 463.198 294.314 463.03 294.375 462.944L295.251 462.023C296.143 461.974 297.017 460.714 297.799 460.251L299.5 458.963C299.959 458.574 300.489 458.313 300.953 457.933L302.75 456.53C303.063 456.022 303.002 456.124 303.5 455.933L304.127 455.125C304.733 455.015 304.896 454.866 305.375 454.505L306 453.941C306.392 453.455 307.029 453.25 307.494 452.818L308.158 452.25C308.627 451.834 309.44 451.146 310 450.947L310.627 450.125C311.557 449.956 311.717 449.238 312.5 448.925L313.75 447.957C314.075 447.525 314.138 447.577 314.625 447.41L315.127 446.625C315.775 446.508 315.888 446.163 316.5 445.957L317.625 445.035C317.983 444.908 318.306 444.568 318.496 444.253L319.127 443.625C319.572 443.544 320.869 442.641 321.133 442.25L321.375 441.877C321.972 441.594 323.082 440.921 323.5 440.394L323.627 440.125C324.295 439.963 324.555 439.718 325.04 439.247L326.125 438.505L326.127 438.125C326.748 438.012 327.025 437.769 327.399 437.25L328.627 436.125C329.14 435.959 329.634 435.707 329.953 435.254L331.127 434.125C331.705 433.985 332.035 433.731 332.411 433.25L333.127 432.625C333.852 432.33 334.375 431.964 335 431.505L336.356 430.312C336.666 430.106 336.855 430.046 337.112 429.75L338.625 428.535C338.702 428.44 338.903 428.182 339 428.125L340.251 427.017C340.806 426.95 341.029 426.725 341.375 426.287L342.627 425.125C343.411 424.94 343.546 424.633 344.126 424.188L344.5 423.925C345.133 423.396 343.876 424.242 345 423.52L345.75 423.021C346.201 422.543 345.981 422.631 346.625 422.421L347.127 421.625C347.782 421.506 348.067 421.246 348.477 420.721L349.625 419.972C349.955 419.738 350.224 419.568 350.445 419.218L350.562 419.001C350.755 418.945 350.985 418.907 351.133 418.75L353.5 416.925C353.998 416.573 354.72 416.201 355.112 415.75L356.127 414.625C356.938 414.428 359.247 412.756 359.625 412.014L360.127 411.625C360.677 411.47 361.08 411.258 361.488 410.85L362.625 410.035C362.954 409.79 363.232 409.559 363.502 409.25L364.127 408.625C364.69 408.498 365.137 408.225 365.445 407.725L366.069 406.938C366.646 406.687 367.094 406.462 367.587 406.06L367.961 405.75C368.287 405.507 368.383 405.585 368.473 405.25L369 404.894C369.177 404.52 369.282 404.541 369.633 404.352L369.921 403.625C370.304 403.248 370.177 403.396 370.477 403.024L371.453 401.625C371.668 401.199 371.877 400.951 372.012 400.473L372.25 400.375C372.575 399.891 372.453 400.144 372.627 399.625L372.41 399.375C372.733 397.527 372.632 394.755 372.426 392.883L372.812 392.688L372.877 391.875C372.298 391.235 372.503 390.752 372.127 390.125L371.877 389.875C371.741 388.6 371.328 388.056 370.089 387.534L369.375 387.181C369.094 386.985 368.995 386.834 368.634 386.78L368.25 386.743C364.487 386.31 360.608 386.516 356.817 386.513L337.445 386.507C334.748 386.506 332.066 386.51 329.375 386.302C325.717 386.019 324.539 386.633 324.438 383.062C324.208 383.446 324.066 383.795 323.92 384.217L323.52 384.499C323.033 379.46 323.387 374.157 323.38 369.083L323.318 358.531C323.301 355.552 323.019 351.895 324.127 349.094L324.267 348.751C324.453 348.201 324.853 347.655 324.963 347.141L325.003 346.875C326.093 346.142 326.274 345.173 327.034 344.205L327.25 343.941C327.714 343.224 328.494 342.349 329.221 341.878L331 340.931C333.211 338.221 340.579 338.298 343.707 338.29L416.625 338.303C421.654 338.308 426.674 338.284 431.712 338.281L446.977 338.294C449.297 338.299 451.818 338.549 454.105 338.33L454.625 338.285C455.208 338.352 454.881 338.431 455.312 338.323L456.251 338.064C457.158 337.76 457.954 337.861 458.807 338.218C453.92 339.443 448.632 338.989 443.622 338.99L344.714 338.991C337.094 338.997 331.246 339.127 326.839 346.566L325.816 348.59C323.671 352.953 324.954 360.632 324.952 365.44C324.95 371.689 324.494 378.331 325.123 384.534C329.52 386.51 334.129 385.734 338.839 385.736L360.94 385.743C365.32 385.747 371.07 384.54 373.079 389.685L373.603 391.217C374.456 393.43 374.153 396.521 374.013 398.876C373.66 404.842 353.851 417.634 349.245 421.219L287.173 469.401C284.843 471.125 282.049 473.57 279.455 474.831Z"/>
</svg>
